<svg xmlns="http://www.w3.org/2000/svg" xmlns:xlink="http://www.w3.org/1999/xlink" width="1536" zoomAndPan="magnify" viewBox="0 0 1152 767.999994" height="1024" preserveAspectRatio="xMidYMid meet" version="1.0"><defs><g/><clipPath id="4439003577"><path d="M 8 231 L 263 231 L 263 531 L 8 531 Z M 8 231 " clip-rule="nonzero"/></clipPath><clipPath id="361555dd9f"><path d="M -13.070312 517.078125 L 14.707031 225.144531 L 283.492188 250.722656 L 255.714844 542.652344 Z M -13.070312 517.078125 " clip-rule="nonzero"/></clipPath><clipPath id="b44b22b9c4"><path d="M -13.070312 517.078125 L 14.707031 225.144531 L 283.492188 250.722656 L 255.714844 542.652344 Z M -13.070312 517.078125 " clip-rule="nonzero"/></clipPath><clipPath id="84a40282ad"><rect x="0" width="869" y="0" height="430"/></clipPath><clipPath id="dabffbbeb0"><path d="M 90 340 L 251 340 L 251 549 L 90 549 Z M 90 340 " clip-rule="nonzero"/></clipPath><clipPath id="faf6b8798a"><path d="M 89.230469 341.1875 L 227.742188 314.808594 L 270.390625 538.785156 L 131.882812 565.160156 Z M 89.230469 341.1875 " clip-rule="nonzero"/></clipPath><clipPath id="b1b1c6301d"><path d="M 89.230469 341.1875 L 227.742188 314.808594 L 270.390625 538.785156 L 131.882812 565.160156 Z M 89.230469 341.1875 " clip-rule="nonzero"/></clipPath></defs><rect x="-115.2" width="1382.4" fill="#ffffff" y="-76.799999" height="921.599993" fill-opacity="1"/><rect x="-115.2" width="1382.4" fill="#ffffff" y="-76.799999" height="921.599993" fill-opacity="1"/><g clip-path="url(#4439003577)"><g clip-path="url(#361555dd9f)"><g clip-path="url(#b44b22b9c4)"><path fill="#ffdf2c" d="M 197.84375 419.914062 C 206.125 410.019531 212.109375 398.53125 215.53125 386.085938 L 247.84375 425.085938 C 259.195312 438.78125 263.894531 455.808594 262.332031 472.234375 C 260.769531 488.660156 252.945312 504.496094 239.210938 515.804688 C 211.753906 538.421875 170.949219 534.539062 148.257812 507.148438 L 93.375 440.914062 C 82.023438 427.214844 77.324219 410.195312 78.886719 393.769531 C 80.453125 377.339844 88.28125 361.507812 102.007812 350.191406 C 103.488281 348.96875 105.132812 348.109375 106.828125 347.449219 C 107.082031 347.351562 107.316406 347.234375 107.570312 347.148438 C 109.226562 346.585938 110.933594 346.304688 112.652344 346.25 C 112.917969 346.238281 113.171875 346.246094 113.4375 346.246094 C 115.21875 346.269531 116.976562 346.519531 118.675781 347.070312 C 118.761719 347.097656 118.835938 347.136719 118.917969 347.167969 C 121.898438 348.179688 124.664062 349.953125 126.820312 352.554688 C 133.027344 360.027344 131.972656 371.117188 124.46875 377.300781 C 116.707031 383.707031 113.109375 393.292969 113.972656 402.625 C 114.15625 404.570312 114.53125 406.5 115.105469 408.390625 C 116.199219 411.996094 117.996094 415.449219 120.542969 418.527344 L 145.386719 448.5 C 145.390625 448.507812 145.394531 448.519531 145.402344 448.527344 L 175.425781 484.765625 C 185.734375 497.203125 204.277344 498.96875 216.753906 488.695312 C 228.835938 478.742188 230.664062 459.53125 220.675781 447.472656 Z M 31.800781 245.933594 C 18.496094 256.886719 10.273438 272.359375 8.640625 289.5 C 7.011719 306.636719 12.167969 323.382812 23.167969 336.644531 L 55.507812 375.683594 C 58.867188 363.488281 64.785156 351.925781 73.1875 341.84375 L 50.335938 314.257812 C 40.339844 302.195312 42.175781 282.992188 54.257812 273.046875 C 60.300781 268.066406 67.933594 265.730469 75.738281 266.472656 C 83.542969 267.21875 90.589844 270.949219 95.582031 276.984375 L 105.65625 289.136719 C 105.671875 289.152344 105.6875 289.160156 105.699219 289.175781 L 150.457031 343.210938 C 160.445312 355.269531 158.617188 374.472656 146.535156 384.429688 C 139.03125 390.597656 137.976562 401.6875 144.179688 409.175781 C 150.375 416.664062 161.488281 417.722656 168.992188 411.535156 C 182.296875 400.582031 190.519531 385.113281 192.148438 367.980469 C 193.78125 350.847656 188.621094 334.097656 177.625 320.828125 L 132.859375 266.78125 C 132.847656 266.765625 132.839844 266.75 132.824219 266.730469 L 122.75 254.585938 C 111.761719 241.316406 96.246094 233.105469 79.066406 231.46875 C 61.890625 229.835938 45.101562 234.972656 31.800781 245.933594 Z M 31.800781 245.933594 " fill-opacity="1" fill-rule="nonzero"/></g></g></g><g transform="matrix(1, 0, 0, 1, 283, 169)"><g clip-path="url(#84a40282ad)"><g fill="#004f6e" fill-opacity="1"><g transform="translate(0.457539, 207.459258)"><g><path d="M 75.875 0 L 42.625 -108.390625 L 41.765625 -108.390625 C 42.960938 -86.335938 43.5625 -71.628906 43.5625 -64.265625 L 43.5625 0 L 17.390625 0 L 17.390625 -138.15625 L 57.265625 -138.15625 L 89.96875 -32.5 L 90.53125 -32.5 L 125.203125 -138.15625 L 165.09375 -138.15625 L 165.09375 0 L 137.78125 0 L 137.78125 -65.390625 C 137.78125 -68.472656 137.828125 -72.03125 137.921875 -76.0625 C 138.015625 -80.101562 138.4375 -90.816406 139.1875 -108.203125 L 138.34375 -108.203125 L 102.71875 0 Z M 75.875 0 "/></g></g></g><g fill="#004f6e" fill-opacity="1"><g transform="translate(192.593279, 207.459258)"><g><path d="M 82.21875 0 L 76.640625 -14.359375 L 75.875 -14.359375 C 71.03125 -8.253906 66.039062 -4.019531 60.90625 -1.65625 C 55.769531 0.707031 49.078125 1.890625 40.828125 1.890625 C 30.679688 1.890625 22.691406 -1.003906 16.859375 -6.796875 C 11.035156 -12.597656 8.125 -20.851562 8.125 -31.5625 C 8.125 -42.78125 12.046875 -51.050781 19.890625 -56.375 C 27.734375 -61.695312 39.5625 -64.640625 55.375 -65.203125 L 73.703125 -65.765625 L 73.703125 -70.40625 C 73.703125 -81.113281 68.222656 -86.46875 57.265625 -86.46875 C 48.828125 -86.46875 38.90625 -83.914062 27.5 -78.8125 L 17.953125 -98.28125 C 30.109375 -104.644531 43.59375 -107.828125 58.40625 -107.828125 C 72.570312 -107.828125 83.4375 -104.738281 91 -98.5625 C 98.5625 -92.382812 102.34375 -83 102.34375 -70.40625 L 102.34375 0 Z M 73.703125 -48.953125 L 62.5625 -48.578125 C 54.175781 -48.316406 47.9375 -46.800781 43.84375 -44.03125 C 39.75 -41.257812 37.703125 -37.039062 37.703125 -31.375 C 37.703125 -23.25 42.363281 -19.1875 51.6875 -19.1875 C 58.363281 -19.1875 63.703125 -21.109375 67.703125 -24.953125 C 71.703125 -28.796875 73.703125 -33.894531 73.703125 -40.25 Z M 73.703125 -48.953125 "/></g></g></g><g fill="#004f6e" fill-opacity="1"><g transform="translate(319.153401, 207.459258)"><g><path d="M 89.96875 0 L 86.09375 -13.515625 L 84.578125 -13.515625 C 81.484375 -8.597656 77.101562 -4.800781 71.4375 -2.125 C 65.769531 0.550781 59.3125 1.890625 52.0625 1.890625 C 39.65625 1.890625 30.300781 -1.429688 24 -8.078125 C 17.695312 -14.722656 14.546875 -24.285156 14.546875 -36.765625 L 14.546875 -105.640625 L 43.375 -105.640625 L 43.375 -43.9375 C 43.375 -36.3125 44.726562 -30.59375 47.4375 -26.78125 C 50.144531 -22.976562 54.460938 -21.078125 60.390625 -21.078125 C 68.453125 -21.078125 74.273438 -23.769531 77.859375 -29.15625 C 81.453125 -34.539062 83.25 -43.46875 83.25 -55.9375 L 83.25 -105.640625 L 112.078125 -105.640625 L 112.078125 0 Z M 89.96875 0 "/></g></g></g><g fill="#004f6e" fill-opacity="1"><g transform="translate(456.012889, 207.459258)"><g><path d="M 74.09375 -107.640625 C 77.988281 -107.640625 81.226562 -107.351562 83.8125 -106.78125 L 81.640625 -79.75 C 79.316406 -80.382812 76.484375 -80.703125 73.140625 -80.703125 C 63.941406 -80.703125 56.773438 -78.335938 51.640625 -73.609375 C 46.503906 -68.890625 43.9375 -62.273438 43.9375 -53.765625 L 43.9375 0 L 15.125 0 L 15.125 -105.640625 L 36.953125 -105.640625 L 41.203125 -87.890625 L 42.625 -87.890625 C 45.894531 -93.804688 50.316406 -98.578125 55.890625 -102.203125 C 61.472656 -105.828125 67.539062 -107.640625 74.09375 -107.640625 Z M 74.09375 -107.640625 "/></g></g></g><g fill="#004f6e" fill-opacity="1"><g transform="translate(553.564755, 207.459258)"><g><path d="M 38.078125 -53.015625 C 38.078125 -42.554688 39.796875 -34.648438 43.234375 -29.296875 C 46.671875 -23.941406 52.257812 -21.265625 60 -21.265625 C 67.6875 -21.265625 73.210938 -23.925781 76.578125 -29.25 C 79.953125 -34.570312 81.640625 -42.492188 81.640625 -53.015625 C 81.640625 -63.472656 79.9375 -71.316406 76.53125 -76.546875 C 73.132812 -81.773438 67.5625 -84.390625 59.8125 -84.390625 C 52.125 -84.390625 46.578125 -81.789062 43.171875 -76.59375 C 39.773438 -71.394531 38.078125 -63.535156 38.078125 -53.015625 Z M 111.125 -53.015625 C 111.125 -35.816406 106.585938 -22.363281 97.515625 -12.65625 C 88.441406 -2.957031 75.8125 1.890625 59.625 1.890625 C 49.476562 1.890625 40.53125 -0.328125 32.78125 -4.765625 C 25.039062 -9.210938 19.085938 -15.59375 14.921875 -23.90625 C 10.765625 -32.21875 8.6875 -41.921875 8.6875 -53.015625 C 8.6875 -70.273438 13.191406 -83.691406 22.203125 -93.265625 C 31.210938 -102.847656 43.875 -107.640625 60.1875 -107.640625 C 70.332031 -107.640625 79.28125 -105.429688 87.03125 -101.015625 C 94.78125 -96.609375 100.734375 -90.273438 104.890625 -82.015625 C 109.046875 -73.765625 111.125 -64.097656 111.125 -53.015625 Z M 111.125 -53.015625 "/></g></g></g><g fill="#004f6e" fill-opacity="1"><g transform="translate(0.457539, 371.847367)"><g><path d="M 75.875 0 L 42.625 -108.390625 L 41.765625 -108.390625 C 42.960938 -86.335938 43.5625 -71.628906 43.5625 -64.265625 L 43.5625 0 L 17.390625 0 L 17.390625 -138.15625 L 57.265625 -138.15625 L 89.96875 -32.5 L 90.53125 -32.5 L 125.203125 -138.15625 L 165.09375 -138.15625 L 165.09375 0 L 137.78125 0 L 137.78125 -65.390625 C 137.78125 -68.472656 137.828125 -72.03125 137.921875 -76.0625 C 138.015625 -80.101562 138.4375 -90.816406 139.1875 -108.203125 L 138.34375 -108.203125 L 102.71875 0 Z M 75.875 0 "/></g></g></g><g fill="#004f6e" fill-opacity="1"><g transform="translate(192.593279, 371.847367)"><g><path d="M 13.890625 -132.953125 C 13.890625 -142.335938 19.117188 -147.03125 29.578125 -147.03125 C 40.035156 -147.03125 45.265625 -142.335938 45.265625 -132.953125 C 45.265625 -128.484375 43.957031 -125.003906 41.34375 -122.515625 C 38.726562 -120.023438 34.804688 -118.78125 29.578125 -118.78125 C 19.117188 -118.78125 13.890625 -123.503906 13.890625 -132.953125 Z M 43.9375 0 L 15.125 0 L 15.125 -105.640625 L 43.9375 -105.640625 Z M 43.9375 0 "/></g></g></g><g fill="#004f6e" fill-opacity="1"><g transform="translate(261.325912, 371.847367)"><g><path d="M 74.09375 -107.640625 C 77.988281 -107.640625 81.226562 -107.351562 83.8125 -106.78125 L 81.640625 -79.75 C 79.316406 -80.382812 76.484375 -80.703125 73.140625 -80.703125 C 63.941406 -80.703125 56.773438 -78.335938 51.640625 -73.609375 C 46.503906 -68.890625 43.9375 -62.273438 43.9375 -53.765625 L 43.9375 0 L 15.125 0 L 15.125 -105.640625 L 36.953125 -105.640625 L 41.203125 -87.890625 L 42.625 -87.890625 C 45.894531 -93.804688 50.316406 -98.578125 55.890625 -102.203125 C 61.472656 -105.828125 67.539062 -107.640625 74.09375 -107.640625 Z M 74.09375 -107.640625 "/></g></g></g><g fill="#004f6e" fill-opacity="1"><g transform="translate(358.877801, 371.847367)"><g><path d="M 82.21875 0 L 76.640625 -14.359375 L 75.875 -14.359375 C 71.03125 -8.253906 66.039062 -4.019531 60.90625 -1.65625 C 55.769531 0.707031 49.078125 1.890625 40.828125 1.890625 C 30.679688 1.890625 22.691406 -1.003906 16.859375 -6.796875 C 11.035156 -12.597656 8.125 -20.851562 8.125 -31.5625 C 8.125 -42.78125 12.046875 -51.050781 19.890625 -56.375 C 27.734375 -61.695312 39.5625 -64.640625 55.375 -65.203125 L 73.703125 -65.765625 L 73.703125 -70.40625 C 73.703125 -81.113281 68.222656 -86.46875 57.265625 -86.46875 C 48.828125 -86.46875 38.90625 -83.914062 27.5 -78.8125 L 17.953125 -98.28125 C 30.109375 -104.644531 43.59375 -107.828125 58.40625 -107.828125 C 72.570312 -107.828125 83.4375 -104.738281 91 -98.5625 C 98.5625 -92.382812 102.34375 -83 102.34375 -70.40625 L 102.34375 0 Z M 73.703125 -48.953125 L 62.5625 -48.578125 C 54.175781 -48.316406 47.9375 -46.800781 43.84375 -44.03125 C 39.75 -41.257812 37.703125 -37.039062 37.703125 -31.375 C 37.703125 -23.25 42.363281 -19.1875 51.6875 -19.1875 C 58.363281 -19.1875 63.703125 -21.109375 67.703125 -24.953125 C 71.703125 -28.796875 73.703125 -33.894531 73.703125 -40.25 Z M 73.703125 -48.953125 "/></g></g></g><g fill="#004f6e" fill-opacity="1"><g transform="translate(485.437924, 371.847367)"><g><path d="M 112.640625 0 L 83.8125 0 L 83.8125 -61.703125 C 83.8125 -69.328125 82.457031 -75.046875 79.75 -78.859375 C 77.039062 -82.671875 72.726562 -84.578125 66.8125 -84.578125 C 58.75 -84.578125 52.921875 -81.882812 49.328125 -76.5 C 45.734375 -71.113281 43.9375 -62.179688 43.9375 -49.703125 L 43.9375 0 L 15.125 0 L 15.125 -105.640625 L 37.140625 -105.640625 L 41.015625 -92.140625 L 42.625 -92.140625 C 45.832031 -97.242188 50.253906 -101.101562 55.890625 -103.71875 C 61.535156 -106.332031 67.945312 -107.640625 75.125 -107.640625 C 87.40625 -107.640625 96.726562 -104.3125 103.09375 -97.65625 C 109.457031 -91.007812 112.640625 -81.421875 112.640625 -68.890625 Z M 112.640625 0 "/></g></g></g><g fill="#004f6e" fill-opacity="1"><g transform="translate(622.297411, 371.847367)"><g><path d="M 48.578125 1.890625 C 36.160156 1.890625 26.40625 -2.925781 19.3125 -12.5625 C 12.226562 -22.207031 8.6875 -35.566406 8.6875 -52.640625 C 8.6875 -69.960938 12.289062 -83.457031 19.5 -93.125 C 26.71875 -102.800781 36.660156 -107.640625 49.328125 -107.640625 C 62.617188 -107.640625 72.757812 -102.472656 79.75 -92.140625 L 80.703125 -92.140625 C 79.253906 -100.015625 78.53125 -107.035156 78.53125 -113.203125 L 78.53125 -147.03125 L 107.4375 -147.03125 L 107.4375 0 L 85.328125 0 L 79.75 -13.703125 L 78.53125 -13.703125 C 71.976562 -3.304688 61.992188 1.890625 48.578125 1.890625 Z M 58.6875 -21.078125 C 66.050781 -21.078125 71.453125 -23.21875 74.890625 -27.5 C 78.328125 -31.78125 80.203125 -39.054688 80.515625 -49.328125 L 80.515625 -52.453125 C 80.515625 -63.785156 78.765625 -71.910156 75.265625 -76.828125 C 71.765625 -81.742188 66.078125 -84.203125 58.203125 -84.203125 C 51.785156 -84.203125 46.796875 -81.472656 43.234375 -76.015625 C 39.671875 -70.566406 37.890625 -62.644531 37.890625 -52.25 C 37.890625 -41.863281 39.6875 -34.070312 43.28125 -28.875 C 46.875 -23.675781 52.007812 -21.078125 58.6875 -21.078125 Z M 58.6875 -21.078125 "/></g></g></g><g fill="#004f6e" fill-opacity="1"><g transform="translate(754.432384, 371.847367)"><g><path d="M 82.21875 0 L 76.640625 -14.359375 L 75.875 -14.359375 C 71.03125 -8.253906 66.039062 -4.019531 60.90625 -1.65625 C 55.769531 0.707031 49.078125 1.890625 40.828125 1.890625 C 30.679688 1.890625 22.691406 -1.003906 16.859375 -6.796875 C 11.035156 -12.597656 8.125 -20.851562 8.125 -31.5625 C 8.125 -42.78125 12.046875 -51.050781 19.890625 -56.375 C 27.734375 -61.695312 39.5625 -64.640625 55.375 -65.203125 L 73.703125 -65.765625 L 73.703125 -70.40625 C 73.703125 -81.113281 68.222656 -86.46875 57.265625 -86.46875 C 48.828125 -86.46875 38.90625 -83.914062 27.5 -78.8125 L 17.953125 -98.28125 C 30.109375 -104.644531 43.59375 -107.828125 58.40625 -107.828125 C 72.570312 -107.828125 83.4375 -104.738281 91 -98.5625 C 98.5625 -92.382812 102.34375 -83 102.34375 -70.40625 L 102.34375 0 Z M 73.703125 -48.953125 L 62.5625 -48.578125 C 54.175781 -48.316406 47.9375 -46.800781 43.84375 -44.03125 C 39.75 -41.257812 37.703125 -37.039062 37.703125 -31.375 C 37.703125 -23.25 42.363281 -19.1875 51.6875 -19.1875 C 58.363281 -19.1875 63.703125 -21.109375 67.703125 -24.953125 C 71.703125 -28.796875 73.703125 -33.894531 73.703125 -40.25 Z M 73.703125 -48.953125 "/></g></g></g></g></g><g clip-path="url(#dabffbbeb0)"><g clip-path="url(#faf6b8798a)"><g clip-path="url(#b1b1c6301d)"><path fill="#004f6e" d="M 215 548.738281 C 214.355469 548.859375 213.683594 548.867188 213.03125 548.742188 C 211.601562 548.488281 210.34375 547.667969 209.527344 546.464844 L 164.972656 480.832031 L 133.363281 524.339844 C 132.09375 526.082031 129.917969 526.898438 127.820312 526.433594 C 125.71875 525.964844 124.097656 524.285156 123.695312 522.175781 L 90.382812 347.238281 C 89.980469 345.125 90.867188 342.980469 92.648438 341.769531 C 94.410156 340.558594 96.75 340.515625 98.566406 341.664062 L 248.40625 436.179688 C 250.207031 437.320312 251.175781 439.417969 250.871094 441.523438 C 250.5625 443.636719 249.042969 445.367188 246.992188 445.941406 L 193.886719 460.878906 L 239.695312 525.269531 C 240.523438 526.433594 240.859375 527.890625 240.613281 529.308594 C 240.371094 530.722656 239.585938 531.980469 238.414062 532.808594 L 217.113281 547.851562 C 216.464844 548.292969 215.753906 548.59375 215 548.738281 Z M 215 548.738281 " fill-opacity="1" fill-rule="nonzero"/></g></g></g></svg>